<?xml version="1.0" standalone="no"?>
<!DOCTYPE svg PUBLIC "-//W3C//DTD SVG 20010904//EN"
 "http://www.w3.org/TR/2001/REC-SVG-20010904/DTD/svg10.dtd">
<svg version="1.0" xmlns="http://www.w3.org/2000/svg"
 width="1000.000000pt" height="1000.000000pt" viewBox="0 0 1000.000000 1000.000000"
 preserveAspectRatio="xMidYMid meet">
<metadata>
Created by potrace 1.14, written by Peter Selinger 2001-2017
</metadata>
<g transform="translate(0.000000,1000.000000) scale(0.100000,-0.100000)"
fill="#000000" stroke="none">
<path d="M0 5000 l0 -5000 5000 0 5000 0 0 5000 0 5000 -5000 0 -5000 0 0
-5000z m8700 0 l0 -3700 -3700 0 -3700 0 0 3700 0 3700 3700 0 3700 0 0 -3700z"/>
<path d="M3957 6934 c-1 -1 -47 -4 -102 -7 -55 -4 -109 -8 -120 -10 -11 -3
-47 -8 -80 -12 -134 -16 -328 -64 -465 -115 -47 -17 -89 -33 -95 -34 -32 -9
-193 -87 -280 -136 -226 -127 -432 -305 -592 -511 -96 -123 -201 -301 -243
-411 -7 -18 -19 -49 -27 -68 -25 -63 -62 -183 -79 -255 -16 -71 -18 -80 -29
-150 -4 -22 -9 -51 -11 -65 -3 -14 -7 -122 -9 -240 -5 -231 12 -397 56 -560
11 -41 22 -86 25 -100 9 -43 93 -250 131 -324 215 -414 593 -750 1063 -941
187 -76 320 -111 603 -159 151 -26 567 -26 732 -1 17 3 48 7 69 10 22 3 71 12
110 21 39 8 82 17 96 20 185 37 448 144 653 266 363 218 618 507 802 913 34
74 98 280 111 355 31 178 33 188 39 265 7 75 7 331 1 380 -2 17 -6 60 -10 96
-20 203 -96 453 -197 648 -64 123 -162 275 -231 356 -55 65 -214 223 -256 255
-18 14 -43 34 -55 44 -54 47 -225 151 -343 210 -229 113 -470 191 -704 226
-41 6 -85 13 -98 15 -70 11 -455 27 -465 19z m338 -1139 c104 -26 168 -54 243
-106 259 -178 387 -479 369 -868 -6 -120 -10 -154 -23 -211 -3 -14 -8 -34 -10
-46 -8 -45 -44 -144 -70 -195 -121 -240 -326 -390 -589 -432 -339 -54 -651 75
-826 343 -46 70 -106 204 -116 260 -2 14 -8 41 -13 61 -23 87 -32 317 -18 454
19 180 104 382 209 498 61 67 182 167 202 167 6 0 18 6 26 13 34 29 182 73
277 83 33 4 60 7 61 8 12 10 206 -10 278 -29z"/>
<path d="M7380 4458 c-292 -60 -463 -182 -599 -427 -21 -38 -60 -165 -71 -233
-14 -90 -7 -289 15 -373 19 -75 81 -216 112 -252 10 -12 28 -35 40 -50 98
-124 243 -225 383 -268 215 -65 483 -48 665 42 162 81 330 262 393 423 50 127
69 312 49 473 -22 178 -126 368 -266 484 -115 95 -229 148 -383 177 -81 15
-272 18 -338 4z"/>
</g>
</svg>
