<svg width="129" height="75" viewBox="0 0 129 75" fill="none" xmlns="http://www.w3.org/2000/svg">
<path d="M41.984 54.432C39.2 54.432 36.688 53.856 34.448 52.704C32.208 51.552 30.448 49.952 29.168 47.904C27.92 45.856 27.296 43.536 27.296 40.944C27.296 38.384 27.92 36.08 29.168 34.032C30.448 31.984 32.192 30.4 34.4 29.28C36.64 28.128 39.168 27.552 41.984 27.552C44.8 27.552 47.328 28.128 49.568 29.28C51.808 30.4 53.552 31.984 54.8 34.032C56.048 36.048 56.672 38.352 56.672 40.944C56.672 43.536 56.048 45.856 54.8 47.904C53.552 49.952 51.808 51.552 49.568 52.704C47.328 53.856 44.8 54.432 41.984 54.432ZM41.984 47.184C43.584 47.184 44.896 46.64 45.92 45.552C46.944 44.432 47.456 42.896 47.456 40.944C47.456 39.024 46.944 37.52 45.92 36.432C44.896 35.344 43.584 34.8 41.984 34.8C40.384 34.8 39.072 35.344 38.048 36.432C37.024 37.52 36.512 39.024 36.512 40.944C36.512 42.896 37.024 44.432 38.048 45.552C39.072 46.64 40.384 47.184 41.984 47.184ZM60.8968 18.384H70.0168V54H60.8968V18.384ZM75.9436 27.984H85.0636V54H75.9436V27.984ZM80.5036 25.104C78.8396 25.104 77.4956 24.64 76.4716 23.712C75.4476 22.784 74.9356 21.632 74.9356 20.256C74.9356 18.88 75.4476 17.728 76.4716 16.8C77.4956 15.872 78.8396 15.408 80.5036 15.408C82.1676 15.408 83.5116 15.856 84.5356 16.752C85.5596 17.616 86.0716 18.736 86.0716 20.112C86.0716 21.552 85.5596 22.752 84.5356 23.712C83.5116 24.64 82.1676 25.104 80.5036 25.104ZM94.8305 54.432C93.2945 54.432 91.9985 53.92 90.9425 52.896C89.8865 51.872 89.3585 50.576 89.3585 49.008C89.3585 47.408 89.8705 46.112 90.8945 45.12C91.9505 44.128 93.2625 43.632 94.8305 43.632C96.4305 43.632 97.7425 44.128 98.7665 45.12C99.7905 46.112 100.303 47.408 100.303 49.008C100.303 50.576 99.7745 51.872 98.7185 52.896C97.6945 53.92 96.3985 54.432 94.8305 54.432Z" fill="black"/>
<rect x="4.5" y="4.5" width="120" height="66" stroke="black" stroke-width="9"/>
</svg>
